<?xml version="1.0" encoding="UTF-8" standalone="no"?>
<!-- Created with Inkscape (http://www.inkscape.org/) -->

<svg
   width="225.95067"
   height="48.575359"
   viewBox="0 0 59.782771 12.852231"
   version="1.1"
   id="svg150"
   inkscape:version="1.1 (c68e22c387, 2021-05-23)"
   sodipodi:docname="cianware.svg"
   inkscape:export-filename="D:\Imagen Corporativa\CIANWARE\cianware.png"
   inkscape:export-xdpi="96"
   inkscape:export-ydpi="96"
   xmlns:inkscape="http://www.inkscape.org/namespaces/inkscape"
   xmlns:sodipodi="http://sodipodi.sourceforge.net/DTD/sodipodi-0.dtd"
   xmlns="http://www.w3.org/2000/svg"
   xmlns:svg="http://www.w3.org/2000/svg">
  <sodipodi:namedview
     id="namedview152"
     pagecolor="#ffffff"
     bordercolor="#666666"
     borderopacity="1.0"
     inkscape:pageshadow="2"
     inkscape:pageopacity="0.0"
     inkscape:pagecheckerboard="false"
     inkscape:document-units="px"
     showgrid="false"
     units="px"
     fit-margin-top="0"
     fit-margin-left="-2.4980018e-16"
     fit-margin-right="0"
     fit-margin-bottom="0"
     showguides="true"
     inkscape:guide-bbox="true"
     inkscape:zoom="3.6203867"
     inkscape:cx="102.88956"
     inkscape:cy="55.104611"
     inkscape:window-width="1920"
     inkscape:window-height="1001"
     inkscape:window-x="-9"
     inkscape:window-y="-9"
     inkscape:window-maximized="1"
     inkscape:current-layer="layer1"
     inkscape:lockguides="true"
     lock-margins="false"
     inkscape:showpageshadow="false"
     showborder="true" />
  <defs
     id="defs147" />
  <g
     inkscape:label="Capa 1"
     inkscape:groupmode="layer"
     id="layer1"
     transform="translate(-82.257003,-169.45518)">
    <path
       id="path1520-7-0-5"
       style="font-style:normal;font-variant:normal;font-weight:normal;font-stretch:normal;font-size:11.8942px;line-height:1.25;font-family:'The Shape Of Things';-inkscape-font-specification:'The Shape Of Things';fill:#00b6ff;fill-opacity:1;stroke:none;stroke-width:0.257647"
       d="m 90.287636,173.16486 v 8.06945 l 1.504902,-2.62231 v -5.44714 z"
       sodipodi:nodetypes="ccccc" />
    <path
       d="m 93.736545,179.72072 h 5.219698 l -2.609849,-4.5408 z m -2.604805,1.51359 5.214654,-9.08665 5.214676,9.08665 z"
       style="font-style:normal;font-variant:normal;font-weight:normal;font-stretch:normal;font-size:11.8942px;line-height:1.25;font-family:'The Shape Of Things';-inkscape-font-specification:'The Shape Of Things';fill:#00b6ff;fill-opacity:1;stroke:none;stroke-width:0.257647"
       id="path1522-6-8-1" />
    <path
       id="path1524-6-3-2"
       style="font-style:normal;font-variant:normal;font-weight:normal;font-stretch:normal;font-size:11.8942px;line-height:1.25;font-family:'The Shape Of Things';-inkscape-font-specification:'The Shape Of Things';fill:#00b6ff;fill-opacity:1;stroke:none;stroke-width:0.257647"
       d="m 100.83705,172.09608 v 6.51369 l 1.50587,2.62426 v -5.48531 l 6.52444,6.55869 0.008,-10.18919 -1.5136,-2.66304 3.3e-4,9.1996 z"
       sodipodi:nodetypes="ccccccccc" />
    <path
       d="m 119.89606,179.72072 h 5.21968 l -2.60983,-4.5408 z m -2.60483,1.51359 5.21468,-9.08665 5.21466,9.08665 z"
       style="font-style:normal;font-variant:normal;font-weight:normal;font-stretch:normal;font-size:11.8942px;line-height:1.25;font-family:'The Shape Of Things';-inkscape-font-specification:'The Shape Of Things';fill:#333333;fill-opacity:1;stroke:none;stroke-width:0.257647"
       id="path1528-5-9-9" />
    <path
       id="path1530-1-2-8"
       style="font-style:normal;font-variant:normal;font-weight:normal;font-stretch:normal;font-size:11.8942px;line-height:1.25;font-family:'The Shape Of Things';-inkscape-font-specification:'The Shape Of Things';fill:#333333;fill-opacity:1;stroke:none;stroke-width:0.257647"
       d="m 126.92148,173.16163 v 5.44911 l 1.50587,2.62329 v -3.27887 h 2.38844 l 1.88259,3.27887 h 1.74166 l -1.908,-3.31995 c 1.27814,-0.17496 1.91779,-0.96029 1.91779,-2.35617 0,-1.59768 -0.83679,-2.39628 -2.50978,-2.39628 z m 1.50587,1.5137 h 3.5127 c 0.66919,0 1.00391,0.29396 1.00391,0.88258 0,0.58862 -0.33472,0.88357 -1.00391,0.88357 h -3.5127 z" />
    <path
       d="m 86.272158,173.16178 h 3.011357 v 1.51359 h -3.011357 q -1.038922,0 -1.776708,0.74167 -0.732768,0.73663 -0.732768,1.781 0,1.0444 0.732768,1.78607 0.737786,0.73661 1.776708,0.73661 h 3.011357 v 1.51359 h -3.011357 q -1.661283,0 -2.840718,-1.18061 -1.174437,-1.18564 -1.174437,-2.85566 0,-1.67001 1.174437,-2.85062 1.179435,-1.18564 2.840718,-1.18564 z"
       style="font-style:normal;font-variant:normal;font-weight:normal;font-stretch:normal;font-size:11.8942px;line-height:1.25;font-family:'The Shape Of Things';-inkscape-font-specification:'The Shape Of Things';fill:#00b6ff;fill-opacity:1;stroke:none;stroke-width:0.257647"
       id="path1518-6-6-3" />
    <path
       style="fill:#333333;fill-opacity:1;stroke:none;stroke-width:0.500977px;stroke-linecap:butt;stroke-linejoin:miter;stroke-opacity:1"
       d="m 133.90961,173.16178 c 0.63859,0.30712 1.10366,0.87735 1.10366,2.52303 v 5.5495 h 7.02651 l -1.51359,-1.51359 h -4.00724 v -1.76588 h 3.50534 l 0.78705,-0.78707 -0.72654,-0.72652 h -3.56585 v -1.76588 h 4.00724 l 1.51359,-1.51359 z"
       id="path39594-6-4-8"
       sodipodi:nodetypes="ccccccccccccccc" />
    <path
       id="path49378-5-9-8"
       style="fill:#333333;fill-opacity:1;stroke:none;stroke-width:0.500977px;stroke-linecap:butt;stroke-linejoin:miter;stroke-opacity:1"
       d="m 122.09776,171.43756 -0.86791,-1.51369 -1.27598,2.22407 c -1.25553,2.18996 -2.51251,4.37906 -3.76895,6.56847 l -0.88743,-1.54891 2.2984,-4.00587 h -1.73679 l -1.43046,2.49217 -1.43054,-2.49217 h -1.73585 l 2.29849,4.00587 -0.88849,1.54891 -3.1869,-5.55478 v 3.02739 l 0.72504,1.26419 2.46186,4.29059 1.75639,-3.06261 1.75628,3.06261 c 1.8356,-3.19841 3.66928,-6.39792 5.50574,-9.59586 z"
       sodipodi:nodetypes="cccccccccccccccccccc" />
  </g>
</svg>
